<svg xmlns="http://www.w3.org/2000/svg" width="208" height="70"><g fill="none" fill-rule="evenodd"><path fill="#CE262F" d="M207.984 68.21c-39.042-5.762-78.084 5.762-117.127 0V10.59c39.043 5.762 78.085-5.762 117.127 0v57.62z"/><path fill="#FFF" d="M107.607 38.545c.42.017.84.032 1.26.045 1.56.05 1.714-.912 1.712-2.07v-6.253c.001-1.363-.15-2.218-1.712-2.266l-1.26-.045v10.59zm0 6.101v15.027a171.857 171.857 0 0 1-6.7-.389V21.768c3.173.248 6.348.401 9.521.478 5.693.111 6.902 2.812 6.903 7.468v7.513c-.001 4.629-1.864 7.61-6.55 7.517a184.664 184.664 0 0 1-3.174-.098zm11.538-22.365c2.3-.033 4.6-.098 6.901-.187V51.14c0 1.562.554 2.299 1.663 2.251 1.057-.046 1.613-.83 1.612-2.393V21.953c2.3-.11 4.602-.24 6.902-.384v28.793c0 6.249-2.922 9.477-7.758 9.702-.554.025-1.108.05-1.663.072-4.887.197-7.658-2.813-7.657-9.061V22.28m25.587 19.433v10.841c.622-.044 1.243-.09 1.864-.135 1.159-.085 1.713-.429 1.713-2.597V43.72c.001-1.564-.403-2.239-1.965-2.125l-1.612.118m0-14.976v8.925l1.511-.11c1.158-.085 1.813-.588 1.815-2.352v-4.69c-.001-1.36-.454-1.983-1.714-1.89l-1.612.117m-6.7-5.284c3.375-.22 6.75-.466 10.126-.716 4.485-.332 6.499 1.238 6.499 6.23v4.993c.003 3.076-1.813 4.972-3.174 5.476 1.915.414 3.728 1.594 3.728 5.628v6.253c.002 5.9-2.064 8.568-6.146 8.87-3.678.272-7.356.542-11.034.783V21.453m25.695-1.801v30.76a433.64 433.64 0 0 1 7.103-.377v6.757c-4.601.204-9.202.495-13.804.818V20.093a684.58 684.58 0 0 1 6.7-.441m27.561 20.458c2.216.088 4.433.215 6.65.388v8.471c-.002 4.458-1.865 8.468-7.76 8.246-.452-.015-.905-.028-1.359-.04-6.449-.136-7.91-4.223-7.91-8.936V27.061c0-4.521 2.016-8.593 7.91-8.462.454.012.907.025 1.36.04 6.448.251 7.758 4.438 7.758 8.698v6.304c-2.216-.173-4.433-.3-6.65-.388v-6.052c0-1.41-.452-2.188-1.712-2.227-1.26-.037-1.663.664-1.663 2.125v21.179c0 1.514.552 2.279 1.712 2.313 1.21.039 1.665-.848 1.664-2.21v-8.27zm-12.191 16.423c-2.15.037-4.3.1-6.45.184V27.702c2.15-.083 4.3-.146 6.45-.182v29.013zm.322-34.426c0 1.961-1.588 3.573-3.547 3.63-1.96.055-3.545-1.467-3.546-3.429 0-1.96 1.587-3.615 3.546-3.671a3.446 3.446 0 0 1 3.547 3.47"/><path fill="#992326" d="M100.906 59.285s-.571 3.627-10.048 8.925V38.25l10.048 21.035z"/><path fill="#CE262F" d="M100.908 59.285c-33.636-5.762-67.272 5.762-100.908 0V1.663c33.636 5.762 67.272-5.762 100.908 0v57.622z"/><path fill="#FFF" d="M16.75 28.593c.436.013.873.023 1.31.032 1.36.026 1.863-.478 1.863-2.242v-5.092c0-1.615-.302-2.117-1.662-2.141-.504-.01-1.008-.022-1.512-.037v9.48zm0 22.238c-2.234-.065-4.468-.18-6.701-.357V12.957c3.527.28 7.053.406 10.58.42 4.08.008 6.145 2.131 6.146 6.173v6c0 3.128-1.713 4.538-2.972 5.108 1.06.39 2.871 1.604 2.872 4.376V47.79c-.001 1.614.302 2.31.553 2.757v.252c-2.233.07-4.466.105-6.7.094-.353-.405-.606-1.214-.605-2.878V37.074c0-1.767-.403-2.219-1.763-2.244-.47-.01-.94-.02-1.41-.034V50.83zm18.137-13.15c.906-.055 1.813-.115 2.72-.177l-1.41-12.764-1.31 12.941m3.375 6.231c-1.343.096-2.688.184-4.03.263l-.605 6.338c-1.982.114-3.963.207-5.945.273 1.579-12.559 3.157-25.134 4.736-37.723 2.653-.14 5.307-.319 7.96-.519 1.696 12.378 3.392 24.747 5.088 37.111-2.167.18-4.333.353-6.499.51l-.705-6.253m14.812-1.156l1.31-.11c1.564-.132 1.966-.97 1.966-2.787V19.69c.001-1.815-.506-2.48-1.764-2.374l-1.512.127v25.314zm-6.7-30.693c3.173-.267 6.348-.545 9.522-.808 5.038-.416 7.305 1.761 7.305 7.456v21.18c0 5.398-1.864 8.433-7.305 8.881-3.174.262-6.349.541-9.522.807V12.063zm37.481 6.618c.001-1.664-.605-2.49-1.763-2.508-1.36-.02-1.814.79-1.813 2.453V39.2c-.001 1.161.453 2.217 1.864 2.237 1.359.022 1.714-1.022 1.712-2.183V18.681zm7.004 20.738c0 5.508-2.923 8.849-7.96 8.738-.505-.01-1.008-.018-1.512-.024-5.292-.042-8.111-3.114-8.111-9.028V19.288c.001-5.78 2.267-9.714 8.06-9.68.504.005 1.009.013 1.513.023 5.894.146 8.01 4.195 8.01 9.92V39.42zm-19.396 8.326c-2.15.088-4.3.206-6.45.344V19.075c2.15-.138 4.3-.256 6.45-.344v29.014zm.322-34.434c-.001 1.96-1.59 3.61-3.547 3.717-1.958.105-3.547-1.378-3.546-3.339 0-1.96 1.588-3.656 3.546-3.761 1.96-.106 3.545 1.422 3.547 3.383"/></g></svg>