<?xml version="1.0" encoding="utf-8"?>
<svg version="1.1" id="AIDA_Logo" xmlns="http://www.w3.org/2000/svg" xmlns:xlink="http://www.w3.org/1999/xlink" x="0px" y="0px"
	 width="827.7px" height="268px" viewBox="0 0 827.7 268" style="enable-background:new 0 0 827.7 268;" xml:space="preserve">
<style type="text/css">
	.st0{fill:#3399CC;}
	.st1{fill:#CC3300;}
	.st2{fill:#FFCC00;}
	.st3{fill:#339900;}
</style>
<g id="AIDA_Schriftzug">
	<path class="st0" d="M441.8,158.6h0.3l11.1,33.3h-22.6L441.8,158.6z M427.2,126.3L387,230.8h28.8l7.2-18.2h37.4l6.8,18.2h29
		l-39.4-104.5H427.2z"/>
	<rect x="510.4" y="126.3" class="st1" width="27.2" height="104.5"/>
	<path class="st2" d="M588.9,207.8h6.1c16.2,0,30.1-8.9,30.1-29.2c0-18.7-12.3-29.2-29.8-29.2h-6.4L588.9,207.8L588.9,207.8z
		 M561.7,126.3h38.5c29.1,0,53.1,22.9,53.1,52.3s-24.1,52.2-53.1,52.2h-38.5V126.3z"/>
	<path class="st3" d="M708.7,158.6h0.3l11.1,33.3h-22.6L708.7,158.6z M694.2,126.3L654,230.8h28.8l7.2-18.2h37.4l6.8,18.2h29
		l-39.4-104.5H694.2z"/>
</g>
<g id="Kussmund">
	<path d="M270.2,230.8L270.2,230.8c-0.2,0-0.5,0-0.7,0h-0.2c-14.8-1-57.6-10.1-134-71.9c-24-19.9-40.4-41.5-53.5-58.9
		C70.1,84.6,60.1,71.3,48.6,64.3c-0.1-0.1-0.2-0.1-0.4-0.2c-1.5-0.8-5.5-2.9-2.7-8.2c2.3-5.1,8.2-18.6,8.5-19.3c0.3-0.6,1.6-2,3.1-2
		c1,0,1.9,0.5,2.8,1.6c25,27.1,45.2,40.9,60,40.9c18.7,0,32.3-6.9,46.8-14.2c14.6-7.4,29.7-15.1,51.4-16.2c0,0,2.2-0.3,5.8-0.3
		c14.9,0,52.4,4.2,79.7,43.4c3.6,5.1,5.8,9,7.3,11.6c1.6,2.8,2.4,4.3,3.2,4.3c0.1,0,0.1,0,0.1,0c0.6-0.2,6.4-5.7,15.8-14.6
		c8.2-7.8,17.4-16.6,23.4-21.8c1.9-1.7,5.7-4.8,7.8-6.2c5.2-3.4,10.3-5.2,14.4-5.2c2.4,0,4.4,0.6,5.8,1.8c3.9,3.3,4.2,7.3,3.4,14
		v0.2c-0.3,2.3-0.7,5.3,0.6,6.8c0.5,0.6,1.2,0.8,2,0.8c1.9,0,4.7-1.2,8.5-3.8c4.8-3.2,8.3-6.4,10.9-8.8c2.3-2.2,4-3.7,5.5-4.2
		c0.3-0.1,0.5-0.1,0.7-0.1c0.8,0,1.3,0.5,1.3,1.5c0,1.9-5.1,7.1-16.4,18.7l-0.1,0.1c-1.3,1.4-2.7,2.8-4.2,4.3
		c-1.9,1.9-3.9,3.9-5.9,6c-9,9.2-19.1,19.5-30,31.4l-0.8,0.9c-19.9,21.7-67.3,73.9-77.1,89.3c-1.3,2-2.5,3.9-3.5,5.5l-0.9,1.5
		C272.2,229,270.9,230.8,270.2,230.8z"/>
	<path class="st1" d="M221.1,121.2c32.4,0,48.9,17.7,56,25.3c0.8,0.8,1.4,1.5,2,2.1l0.2,0.2c3.3,3.3,6.7,6.7,10.7,6.7
		c3.9,0,8.1-3.3,12.6-10c0.7-1,1.3-1.9,2-2.9c7.5-11.1,15.2-22.7,24.9-22.7c1.3,0,2.6,0.2,4,0.6c1.1,0.3,2.3,0.4,3.4,0.4
		c7.6,0,15.6-6.2,22.6-11.6c1.8-1.4,3.5-2.7,5.1-3.9c11.1-8.1,27.3-20.5,31.9-24l-10.5,5c-2.8,1.4-4.7,2.1-5.9,2.1
		c-0.7,0-1.1-0.2-1.5-0.6c-0.8-0.9-0.5-2.8-0.2-5.1c0.5-3.3,1-7.4-1-10.8c-0.9-1.6-2.2-2.3-4.1-2.3c-10.1,0-33,22.6-48.1,37.6
		c-2.5,2.5-4.9,4.8-7,6.8c-1.2,1.3-2.4,2.5-3.4,3.5c-6,6.3-8.5,8.8-10.3,8.8c-1.3,0-2.2-1.3-3.6-3.4c-0.4-0.7-0.9-1.4-1.5-2.2
		c-1.9-2.6-3.5-5-5.1-7.4c-8.1-11.7-13.9-20.1-31.8-34.7c-11-8.9-23.4-13.2-38-13.2c-19.4,0-39.4,7.8-57.1,14.7
		c-9.4,3.7-18.3,7.1-26.4,9.2c-4.2,1.1-8.6,1.6-12.9,1.6c-18.2,0-33.4-9.4-41.6-15.9c11,10.1,28.7,25,44.5,34.1
		c16.6,9.6,33.8,13.9,55.9,13.9c7.7,0,15.9-0.5,25.3-1.5C215.3,121.3,218.2,121.2,221.1,121.2z"/>
	<path class="st1" d="M95.4,96.2c15.9,18.7,33.3,35.9,52,51.2c16.8,13.8,34.6,26.2,53,36.8c30,17.3,54,25.4,60.7,27.1
		c1.3,0.3,2.4,0.6,3.4,0.9c2.1,0.6,3.6,1,4.8,1c2.3,0,3.8-1.5,6.8-5.7c16.8-24.6,60.3-67.9,81.8-89.4c-5.7,4.6-12.9,9.1-19.3,9.1
		c-1.4,0-2.8-0.2-4.1-0.7c-1.2-0.4-2.5-0.7-3.7-0.7c-8.3,0-15,10.2-22.8,22.1c-0.8,1.2-1.6,2.5-2.5,3.7
		c-8.5,14.1-14.2,19.9-19.7,19.9c-4.4,0-8.6-3.6-14.3-8.6c-1.8-1.6-3.8-3.3-6-5.1c-19.9-17.2-27.8-21.6-54.6-21.6
		c-8.2,0-18.3,0.4-28.8,0.9c-1.2,0.1-2.4,0.1-3.6,0.1c-25.8,0-48.4-12.7-62.8-23.3C106.7,107.3,99.7,100.7,95.4,96.2z"/>
</g>
</svg>