<?xml version="1.0" standalone="no"?>
<!DOCTYPE svg PUBLIC "-//W3C//DTD SVG 20010904//EN"
 "http://www.w3.org/TR/2001/REC-SVG-20010904/DTD/svg10.dtd">
<svg version="1.0" xmlns="http://www.w3.org/2000/svg"
 width="1275.000000pt" height="1275.000000pt" viewBox="0 0 1275.000000 1275.000000"
 preserveAspectRatio="xMidYMid meet">
<metadata>
Created by potrace 1.11, written by Peter Selinger 2001-2013
</metadata>
<g transform="translate(0.000000,1275.000000) scale(0.100000,-0.100000)"
fill="#000000" stroke="none">
<path d="M6135 10689 c-638 -48 -1247 -288 -1755 -690 -131 -103 -392 -363
-492 -489 -415 -523 -642 -1094 -702 -1767 l-6 -63 199 0 198 0 12 118 c64
616 333 1191 768 1643 442 458 997 741 1638 836 91 13 183 17 380 17 279 0
390 -10 613 -60 850 -189 1584 -787 1939 -1579 124 -274 204 -569 234 -857
l12 -118 198 0 199 0 -6 63 c-60 673 -287 1244 -702 1767 -100 126 -361 386
-492 489 -638 505 -1433 750 -2235 690z"/>
<path d="M6220 9944 c-613 -53 -1114 -274 -1537 -678 -346 -330 -596 -773
-697 -1236 -21 -100 -30 -155 -51 -317 l-4 -33 200 0 c109 0 199 3 199 6 0 4
7 54 16 113 86 589 424 1109 934 1436 112 72 320 169 455 214 212 69 414 101
640 101 529 0 1025 -198 1411 -562 280 -265 485 -613 578 -987 20 -76 56 -282
56 -315 0 -3 90 -6 199 -6 l200 0 -4 33 c-21 162 -30 217 -51 317 -101 463
-351 906 -697 1236 -379 362 -839 585 -1359 659 -103 15 -403 26 -488 19z"/>
<path d="M6206 9190 c-220 -25 -395 -77 -591 -175 -467 -233 -801 -669 -904
-1182 -12 -55 -21 -113 -21 -127 l0 -26 198 0 198 0 12 72 c37 215 163 460
324 633 265 284 619 428 1007 412 251 -11 470 -80 664 -211 37 -25 71 -46 75
-46 9 0 255 -246 252 -251 -2 -2 17 -35 42 -74 94 -145 165 -319 190 -463 l12
-72 198 0 198 0 0 26 c0 49 -41 229 -76 334 -194 582 -712 1028 -1314 1131
-134 23 -351 32 -464 19z"/>
<path d="M6248 8440 c-220 -35 -423 -140 -564 -293 -167 -180 -254 -402 -254
-647 0 -372 205 -695 542 -855 138 -65 244 -89 403 -89 159 0 265 24 403 89
399 189 612 618 523 1050 -72 352 -351 640 -701 725 -98 23 -269 33 -352 20z"/>
<path d="M1050 7292 c284 -177 3580 -2202 3590 -2206 11 -4 138 192 458 703
l442 709 -71 69 c-184 177 -331 447 -371 684 l-12 69 -2041 0 -2040 0 45 -28z"/>
<path d="M7652 7251 c-37 -217 -162 -463 -324 -636 -265 -284 -619 -428 -1007
-412 -151 7 -245 24 -371 68 -47 17 -92 31 -99 32 -10 1 -494 -765 -1343
-2123 -730 -1169 -1328 -2127 -1328 -2129 0 -2 10 3 23 11 12 8 1937 1193
4277 2633 2340 1439 4257 2619 4259 2621 2 2 -914 4 -2035 4 l-2040 0 -12 -69z"/>
<path d="M7364 4209 c-340 -210 -625 -387 -632 -393 -10 -10 272 -188 1399
-882 777 -478 1419 -873 1427 -878 10 -6 7 5 -9 30 -66 108 -1560 2499 -1562
2501 -2 1 -282 -169 -623 -378z"/>
</g>
</svg>
