<?xml version="1.0" encoding="utf-8"?>
<!-- Generator: Adobe Illustrator 15.0.2, SVG Export Plug-In . SVG Version: 6.00 Build 0)  -->
<!DOCTYPE svg PUBLIC "-//W3C//DTD SVG 1.1//EN" "http://www.w3.org/Graphics/SVG/1.1/DTD/svg11.dtd">
<svg version="1.1" id="logo_3k_mit_schrift" xmlns="http://www.w3.org/2000/svg" xmlns:xlink="http://www.w3.org/1999/xlink"
	 x="0px" y="0px" width="1047.739px" height="272.163px" viewBox="0 0 1047.739 272.163"
	 enable-background="new 0 0 1047.739 272.163" xml:space="preserve">
<g>
	<g opacity="0.8">
		<path fill="#333333" d="M310.711,120.733c0-1.73-0.068-3.831-0.2-6.3c-0.134-2.466-0.234-4.966-0.3-7.5
			c-0.068-2.531-0.169-4.899-0.3-7.1c-0.135-2.2-0.2-3.9-0.2-5.101h12c0.131,3.469,0.231,6.801,0.3,10c0.065,3.2,0.231,5.27,0.5,6.2
			h0.601c2.399-5.065,6.399-9.431,12-13.1c5.6-3.666,12.131-5.5,19.6-5.5c6.131,0,11.731,1.568,16.8,4.7
			c5.065,3.134,8.731,8.234,11,15.3c2.932-6.932,7.3-12,13.101-15.2c5.8-3.2,11.899-4.8,18.3-4.8c7.2,0,13.065,1.134,17.6,3.399
			c4.531,2.27,8.101,5.234,10.7,8.9c2.6,3.669,4.4,7.9,5.4,12.7s1.5,9.734,1.5,14.8v55h-12v-54.4c0-3.73-0.335-7.365-1-10.899
			c-0.669-3.531-1.835-6.7-3.5-9.5c-1.669-2.8-4-5.031-7-6.7c-3-1.666-6.9-2.5-11.7-2.5c-5.601,0-10.2,1.034-13.8,3.1
			c-3.601,2.069-6.435,4.7-8.5,7.9c-2.069,3.2-3.535,6.669-4.4,10.4c-0.869,3.734-1.3,7.269-1.3,10.6v52h-12v-55.6
			c0-8.531-1.569-15.4-4.7-20.601c-3.135-5.2-7.969-7.8-14.5-7.8c-4.4,0-8.568,0.769-12.5,2.3c-3.935,1.534-7.334,3.869-10.2,7
			c-2.868,3.135-5.134,7.069-6.8,11.8c-1.669,4.734-2.5,10.301-2.5,16.7v46.2h-12V120.733z"/>
		<path fill="#333333" d="M478.409,58.133c0-2.531,0.865-4.666,2.6-6.4c1.731-1.73,3.866-2.6,6.4-2.6c2.531,0,4.666,0.869,6.4,2.6
			c1.73,1.734,2.6,3.869,2.6,6.4c0,2.534-0.869,4.669-2.6,6.4c-1.734,1.734-3.869,2.6-6.4,2.6c-2.534,0-4.669-0.865-6.4-2.6
			C479.274,62.802,478.409,60.667,478.409,58.133z M481.409,94.733h12v92.4h-12V94.733z"/>
		<path fill="#333333" d="M526.548,120.733c0-1.73-0.068-3.831-0.2-6.3c-0.134-2.466-0.234-4.966-0.3-7.5
			c-0.068-2.531-0.169-4.899-0.3-7.1c-0.135-2.2-0.2-3.9-0.2-5.101h12c0.131,3.469,0.231,6.801,0.3,10c0.065,3.2,0.231,5.27,0.5,6.2
			h0.601c2.399-5.065,6.399-9.431,12-13.1c5.6-3.666,12.131-5.5,19.6-5.5c7.2,0,13.065,1.134,17.6,3.399
			c4.531,2.27,8.101,5.234,10.7,8.9c2.601,3.669,4.4,7.9,5.4,12.7s1.5,9.734,1.5,14.8v55h-12v-54.4c0-3.73-0.335-7.365-1-10.899
			c-0.669-3.531-1.835-6.7-3.5-9.5c-1.669-2.8-4-5.031-7-6.7c-3-1.666-6.9-2.5-11.7-2.5c-4.4,0-8.568,0.769-12.5,2.3
			c-3.935,1.534-7.334,3.869-10.2,7c-2.868,3.135-5.134,7.069-6.8,11.8c-1.669,4.734-2.5,10.301-2.5,16.7v46.2h-12V120.733z"/>
		<path fill="#333333" d="M718.127,170.933h-0.399c-1.869,3.2-4.2,5.969-7,8.3c-2.801,2.335-5.835,4.27-9.101,5.801
			c-3.269,1.534-6.7,2.665-10.3,3.399c-3.6,0.731-7.135,1.101-10.6,1.101c-7.069,0-13.601-1.2-19.601-3.601
			c-6-2.399-11.134-5.766-15.399-10.1c-4.27-4.331-7.601-9.466-10-15.4c-2.4-5.931-3.601-12.431-3.601-19.5
			c0-7.065,1.2-13.565,3.601-19.5c2.399-5.931,5.73-11.065,10-15.399c4.266-4.332,9.399-7.7,15.399-10.101
			c6-2.399,12.531-3.6,19.601-3.6c3.465,0,7,0.368,10.6,1.1c3.6,0.734,7.031,1.869,10.3,3.4c3.266,1.534,6.3,3.469,9.101,5.8
			c2.8,2.334,5.131,5.1,7,8.3h0.399v-75h12v151.2h-12V170.933z M719.327,140.933c0-5.2-1-10.1-3-14.7c-2-4.6-4.734-8.6-8.2-12
			c-3.469-3.399-7.534-6.1-12.2-8.1c-4.668-2-9.734-3-15.199-3c-5.601,0-10.669,1-15.2,3c-4.534,2-8.4,4.7-11.601,8.1
			c-3.199,3.4-5.634,7.4-7.3,12c-1.669,4.601-2.5,9.5-2.5,14.7s0.831,10.101,2.5,14.7c1.666,4.6,4.101,8.6,7.3,12
			c3.2,3.4,7.066,6.1,11.601,8.1c4.531,2,9.6,3,15.2,3c5.465,0,10.531-1,15.199-3c4.666-2,8.731-4.699,12.2-8.1
			c3.466-3.4,6.2-7.4,8.2-12S719.327,146.133,719.327,140.933z"/>
		<path fill="#333333" d="M761.686,35.933h12v151.2h-12V35.933z"/>
		<path fill="#333333" d="M804.584,58.133c0-2.531,0.865-4.666,2.6-6.4c1.731-1.73,3.866-2.6,6.4-2.6c2.531,0,4.666,0.869,6.4,2.6
			c1.73,1.734,2.6,3.869,2.6,6.4c0,2.534-0.869,4.669-2.6,6.4c-1.734,1.734-3.869,2.6-6.4,2.6c-2.534,0-4.669-0.865-6.4-2.6
			C805.449,62.802,804.584,60.667,804.584,58.133z M807.584,94.733h12v92.4h-12V94.733z"/>
		<path fill="#333333" d="M852.722,120.733c0-1.73-0.068-3.831-0.2-6.3c-0.134-2.466-0.234-4.966-0.3-7.5
			c-0.068-2.531-0.169-4.899-0.3-7.1c-0.135-2.2-0.2-3.9-0.2-5.101h12c0.131,3.469,0.231,6.801,0.3,10c0.065,3.2,0.231,5.27,0.5,6.2
			h0.601c2.399-5.065,6.399-9.431,12-13.1c5.6-3.666,12.131-5.5,19.6-5.5c7.2,0,13.065,1.134,17.6,3.399
			c4.531,2.27,8.101,5.234,10.7,8.9c2.601,3.669,4.4,7.9,5.4,12.7s1.5,9.734,1.5,14.8v55h-12v-54.4c0-3.73-0.335-7.365-1-10.899
			c-0.669-3.531-1.835-6.7-3.5-9.5c-1.669-2.8-4-5.031-7-6.7c-3-1.666-6.9-2.5-11.7-2.5c-4.4,0-8.568,0.769-12.5,2.3
			c-3.935,1.534-7.334,3.869-10.2,7c-2.868,3.135-5.134,7.069-6.8,11.8c-1.669,4.734-2.5,10.301-2.5,16.7v46.2h-12V120.733z"/>
		<path fill="#333333" d="M963.542,35.933h12v100.8l45.6-41.8h17.601l-47.601,42.2l53.2,50h-18.2l-50.6-48.8v48.8h-12V35.933z"/>
	</g>
	<g>
		<g id="segmente_2_">
			<path fill="#65737E" d="M110.242,201c-4.121-10.276-7.319-21.312-9.475-32.671c-0.554-2.053-1.042-4.221-1.46-6.512
				c0.004,0.021,0.007,0.044,0.009,0.062c-3.164,0.291-6.361,0.456-9.572,0.458c-30.771-0.001-49.884-10.157-49.884-26.502
				c0-16.347,19.093-26.5,49.827-26.499c3.305,0,6.59,0.17,9.846,0.482c0.17-0.902,0.633-1.844,0.826-2.704
				c2.166-12.664,6.508-25.308,10.508-36.431v0.004c-7-0.852-13.789-1.418-20.896-1.416C23.668,69.272,0,105.127,0,135.803
				c0.004,30.678,23.471,66.514,89.818,66.517c7.047,0,13.852-0.532,20.406-1.448C110.24,200.914,110.225,200.963,110.242,201z"/>
			<path fill="#D4AF37" d="M109.949,71.09c10.959,1.57,22.117,4.316,33.031,8.133c2.055,0.543,4.18,1.205,6.367,1.992
				c-0.018-0.007-0.037-0.016-0.059-0.023c1.33-2.89,2.788-5.74,4.391-8.52c15.387-26.649,33.738-38.122,47.894-29.951
				c14.153,8.175,13.403,29.784-1.964,56.399c-1.65,2.862-3.446,5.621-5.34,8.288c0.694,0.596,1.471,1.088,2.119,1.684
				c9.883,8.21,17.479,17.846,26.479,26.934v-0.002c5-5.154,7.934-10.849,11.488-17.009c33.15-57.417,13.835-95.647-12.73-110.986
				C195.057-7.31,152.24-4.808,119.066,52.647c-3.526,6.105-6.49,12.314-8.975,18.449C110.047,71.09,109.992,71.099,109.949,71.09z"
				/>
			<path fill="#C0C0C0" d="M222.679,135.899c-6.841,8.709-14.798,16.994-23.558,24.538c-1.5,1.509-3.135,3.015-4.911,4.52
				c0.019-0.013,0.036-0.023,0.052-0.038c1.836,2.593,3.574,5.281,5.182,8.062c15.387,26.648,16.146,48.277,1.99,56.449
				c-14.152,8.174-32.493-3.28-47.863-29.898c-1.652-2.863-3.142-5.797-4.504-8.771c-0.863,0.304-1.666,0.671-2.508,0.937
				c-12.051,4.455-24.52,7.407-36.553,9.407h0.002c2.271,6,5.419,12.351,8.975,18.511c33.148,57.416,75.911,59.837,102.479,44.499
				c26.565-15.34,45.808-53.655,12.634-111.113c-3.524-6.107-7.42-11.769-11.489-16.991
				C222.635,135.976,222.652,135.928,222.679,135.899z"/>
			<path fill="#847A4F" d="M144.322,79.309c-9.897-3.535-21.457-6.727-34.096-8.504c-0.042,0.1-0.08,0.203-0.119,0.305
				c-0.021-0.006-0.043-0.009-0.062-0.01c-4.6,11.352-7.567,22.502-9.475,32.529c-2.729,10.115-3.453,21.768-3.302,32.344
				c-0.151,10.544,0.571,22.161,3.286,32.266c1.896,10.018,4.864,21.162,9.449,32.514c0.022-0.002,0.045-0.004,0.07-0.01
				c0.015,0.042,0.029,0.082,0.047,0.123c11.271-1.574,21.682-4.279,30.832-7.349c12.016-2.756,24.678-9.312,35.104-15.806
				c1.266-0.787,2.631-1.662,4.07-2.616c5.58-3.495,11.064-7.425,15.85-11.725c8.639-7.113,18.053-16.15,26.649-27.151
				c-0.04-0.053-0.089-0.107-0.132-0.159c0.066-0.085,0.132-0.165,0.197-0.247c-7.641-9.798-15.935-18.02-23.764-24.736
				c-7.574-7.563-17.555-14.115-26.955-19.31C163.438,86.743,153.769,81.981,144.322,79.309z M138.451,151.704
				c-0.704-5.555-1.062-10.846-1.162-15.69c0.098-4.944,0.469-10.36,1.199-16.046c4.988,2.096,9.605,4.35,13.737,6.608
				c4.397,2.625,9.108,5.771,13.876,9.401c-2.723,2.07-5.423,3.986-8.058,5.734C152.602,145.059,145.942,148.555,138.451,151.704z"
				/>
		</g>
		<path fill="#A8986D" d="M97.07,135.869L97.07,135.869l0.08,0.003c-0.119,8.508,0.383,17.691,1.947,26.249
			c14.172-1.347,27.75-5.421,39.309-10.34c-0.002-0.014,0.008-0.033,0.004-0.048c0,0.002,0.002,0.002,0.002,0.002
			c-0.705-5.6-1.256-10.936-1.354-15.82c-0.002-0.017-0.191-0.031-0.191-0.043c0-0.014,0-0.029,0-0.043
			c1-4.889,0.652-10.221,1.355-15.822c0,0,0.098,0.001,0.104,0.004c0-0.018,0.051-0.034,0.055-0.049
			c-11.561-4.923-25.174-8.994-39.348-10.34C97.465,118.178,97.07,127.364,97.07,135.869z"/>
		<path fill="#665F48" stroke="#665F48" stroke-width="0.3" stroke-miterlimit="10" d="M199.004,111.176
			c-1.422-1.43-2.949-2.805-4.519-4.158c-8.262,11.596-18.562,21.305-28.611,28.877c0.004-0.002,0.005,0.001,0.007,0.002
			c-0.021,0.019-0.043,0.031-0.063,0.045c10.032,7.58,20.321,17.284,28.572,28.877c0.526-0.449,1.044-0.9,1.555-1.358
			c0.607-0.497,1.228-1.03,1.841-1.55c0.131-0.125,0.27-0.246,0.399-0.373c8.058-6.844,16.651-15.307,24.558-25.422
			c-0.037-0.048-0.072-0.092-0.11-0.141c0.001-0.001,0.004-0.006,0.008-0.011c-0.033-0.036-0.063-0.077-0.095-0.116
			c0.016-0.021,0.027-0.037,0.043-0.052C215.004,126.077,206.78,117.878,199.004,111.176z"/>
		<path fill="#838A8E" d="M172.693,92.193L172.693,92.193c-0.002-0.001-0.002-0.001-0.002-0.001
			c-7.307-4.358-15.49-8.555-23.686-11.474c-5.92,12.946-9.168,26.722-10.689,39.192c0.015,0.006,0.028,0.012,0.044,0.02
			c-0.002-0.004-0.001-0.004,0.001-0.006c5.202,2.191,10.006,4.544,14.282,6.906c0.014,0.006,0.026,0.013,0.037,0.021
			c0.012,0.006,0.081-0.331,0.092-0.325c4.185,2.526,8.908,6.577,13.179,8.577h-0.008c0.01,0-0.028,0.364-0.015,0.374
			c10.039-7.551,20.319-17.083,28.57-28.683C187.874,101.157,180.121,96.34,172.693,92.193z"/>
		<path fill="#847A4F" d="M172.591,179.61C172.591,179.61,172.591,179.61,172.591,179.61L172.591,179.61
			c7.431-4.148,15.153-9.137,21.78-14.774c-8.252-11.601-18.561-21.304-28.597-28.854c-0.012,0.007-0.026,0.02-0.042,0.031
			c0,0,0-0.008,0.004-0.006c-4.502,3.408-8.895,6.467-13.129,8.909c-0.01,0.006-0.023,0.015-0.034,0.019
			c-0.011,0.009-0.195,0.024-0.206,0.031c-4.279,2.358-8.451,4.72-14.454,6.91c0.002-0.002,0.002-0.002,0.003-0.004
			c-0.001,0.008,0.142,0.012,0.126,0.02c1.519,12.467,4.856,26.244,10.776,39.193C157.014,188.163,165.283,183.971,172.591,179.61z"
			/>
		<path fill="#665F48" stroke="#665F48" stroke-width="0.3" stroke-miterlimit="10" d="M110.046,71.156
			c-0.022-0.005-0.044-0.007-0.063-0.011c-4.624,11.354-7.611,22.504-9.529,32.528c-0.523,1.933-0.953,3.931-1.336,5.958
			c14.184,1.35,27.754,5.398,39.336,10.292c1.524-12.437,4.742-26.169,10.662-39.079c-1.555-0.544-3.111-1.055-4.662-1.489
			c-1.079-0.384-2.186-0.76-3.299-1.133c-0.031-0.007-0.062-0.015-0.091-0.021c-3.437-1.148-7.05-2.244-10.819-3.248
			c-0.027-0.009-0.053-0.014-0.078-0.022c-1.213-0.321-2.441-0.634-3.688-0.938c-0.086-0.023-0.172-0.039-0.254-0.062
			c-1.232-0.297-2.477-0.583-3.732-0.856c-0.065-0.017-0.132-0.029-0.202-0.042c-3.913-0.852-7.962-1.586-12.13-2.169
			C110.121,70.961,110.083,71.059,110.046,71.156z"/>
		<path fill="#665F48" stroke="#665F48" stroke-width="0.5" stroke-miterlimit="10" d="M149.115,190.917
			c-5.92-12.912-9.139-26.646-10.662-39.076c-11.582,4.891-25.152,8.941-39.338,10.291c0.385,2.025,0.815,4.025,1.338,5.957
			c1.918,10.021,4.903,21.174,9.528,32.526c0.021-0.002,0.042-0.007,0.062-0.009c0.04,0.095,0.077,0.194,0.117,0.29
			c4.165-0.584,8.217-1.315,12.129-2.165c0.067-0.016,0.135-0.029,0.199-0.043c1.258-0.273,2.503-0.562,3.731-0.859
			c0.084-0.023,0.173-0.041,0.256-0.062c1.244-0.304,2.477-0.614,3.69-0.938c0.025-0.005,0.049-0.015,0.077-0.022
			c3.77-1.005,7.383-2.101,10.819-3.243c0.028-0.009,0.06-0.021,0.089-0.024c1.117-0.375,2.222-0.749,3.301-1.133
			C146.002,191.971,147.56,191.456,149.115,190.917z"/>
	</g>
</g>
</svg>
